<mxfile host="app.diagrams.net" modified="2023-07-31T12:50:13.648Z" agent="Mozilla/5.0 (X11; Ubuntu; Linux x86_64; rv:109.0) Gecko/20100101 Firefox/115.0" etag="AvQNhimzqLWEHR7f1jnB" version="21.6.6" type="github">
  <diagram id="C5RBs43oDa-KdzZeNtuy" name="Page-1">
    <mxGraphModel dx="1845" dy="1126" grid="1" gridSize="10" guides="1" tooltips="1" connect="1" arrows="1" fold="1" page="1" pageScale="1" pageWidth="827" pageHeight="1169" math="0" shadow="0">
      <root>
        <mxCell id="WIyWlLk6GJQsqaUBKTNV-0" />
        <mxCell id="WIyWlLk6GJQsqaUBKTNV-1" parent="WIyWlLk6GJQsqaUBKTNV-0" />
        <mxCell id="30GPN8XgoAUHvCBVAkMa-12" style="edgeStyle=orthogonalEdgeStyle;rounded=0;orthogonalLoop=1;jettySize=auto;html=1;entryX=0.5;entryY=0;entryDx=0;entryDy=0;" edge="1" parent="WIyWlLk6GJQsqaUBKTNV-1" source="30GPN8XgoAUHvCBVAkMa-0" target="30GPN8XgoAUHvCBVAkMa-3">
          <mxGeometry relative="1" as="geometry" />
        </mxCell>
        <mxCell id="30GPN8XgoAUHvCBVAkMa-0" value="&lt;div&gt;Read arguments with va_list args;&lt;br&gt;&lt;/div&gt;" style="rounded=1;whiteSpace=wrap;html=1;" vertex="1" parent="WIyWlLk6GJQsqaUBKTNV-1">
          <mxGeometry x="90" y="145" width="120" height="60" as="geometry" />
        </mxCell>
        <mxCell id="30GPN8XgoAUHvCBVAkMa-33" style="edgeStyle=orthogonalEdgeStyle;rounded=0;orthogonalLoop=1;jettySize=auto;html=1;entryX=0.5;entryY=0;entryDx=0;entryDy=0;entryPerimeter=0;" edge="1" parent="WIyWlLk6GJQsqaUBKTNV-1" source="30GPN8XgoAUHvCBVAkMa-3" target="30GPN8XgoAUHvCBVAkMa-15">
          <mxGeometry relative="1" as="geometry" />
        </mxCell>
        <mxCell id="30GPN8XgoAUHvCBVAkMa-3" value="inicialitation of arguments with&lt;br&gt;va_start(args, str)" style="rounded=1;whiteSpace=wrap;html=1;" vertex="1" parent="WIyWlLk6GJQsqaUBKTNV-1">
          <mxGeometry x="90" y="235" width="120" height="60" as="geometry" />
        </mxCell>
        <mxCell id="30GPN8XgoAUHvCBVAkMa-7" value="" style="group" vertex="1" connectable="0" parent="WIyWlLk6GJQsqaUBKTNV-1">
          <mxGeometry x="250" y="245" width="180" height="50" as="geometry" />
        </mxCell>
        <mxCell id="30GPN8XgoAUHvCBVAkMa-4" value="" style="strokeWidth=2;html=1;shape=mxgraph.flowchart.annotation_2;align=left;labelPosition=right;pointerEvents=1;" vertex="1" parent="30GPN8XgoAUHvCBVAkMa-7">
          <mxGeometry width="50" height="50" as="geometry" />
        </mxCell>
        <mxCell id="30GPN8XgoAUHvCBVAkMa-5" value="&lt;div&gt;args: name from last step&lt;/div&gt;&lt;div&gt;str: first argument&lt;/div&gt;" style="text;html=1;align=center;verticalAlign=middle;resizable=0;points=[];autosize=1;strokeColor=none;fillColor=none;" vertex="1" parent="30GPN8XgoAUHvCBVAkMa-7">
          <mxGeometry x="20" y="5" width="160" height="40" as="geometry" />
        </mxCell>
        <mxCell id="30GPN8XgoAUHvCBVAkMa-10" style="edgeStyle=orthogonalEdgeStyle;rounded=0;orthogonalLoop=1;jettySize=auto;html=1;entryX=1;entryY=0.5;entryDx=0;entryDy=0;dashed=1;dashPattern=8 8;" edge="1" parent="WIyWlLk6GJQsqaUBKTNV-1" source="30GPN8XgoAUHvCBVAkMa-4" target="30GPN8XgoAUHvCBVAkMa-3">
          <mxGeometry relative="1" as="geometry" />
        </mxCell>
        <mxCell id="30GPN8XgoAUHvCBVAkMa-22" value="" style="edgeStyle=orthogonalEdgeStyle;rounded=0;orthogonalLoop=1;jettySize=auto;html=1;" edge="1" parent="WIyWlLk6GJQsqaUBKTNV-1" source="30GPN8XgoAUHvCBVAkMa-15">
          <mxGeometry relative="1" as="geometry">
            <mxPoint x="150" y="550" as="targetPoint" />
          </mxGeometry>
        </mxCell>
        <mxCell id="30GPN8XgoAUHvCBVAkMa-29" style="edgeStyle=orthogonalEdgeStyle;rounded=0;orthogonalLoop=1;jettySize=auto;html=1;entryX=1;entryY=0.5;entryDx=0;entryDy=0;fillColor=#f8cecc;strokeColor=#b85450;exitX=1;exitY=0.5;exitDx=0;exitDy=0;exitPerimeter=0;" edge="1" parent="WIyWlLk6GJQsqaUBKTNV-1" source="30GPN8XgoAUHvCBVAkMa-15" target="30GPN8XgoAUHvCBVAkMa-26">
          <mxGeometry relative="1" as="geometry">
            <Array as="points">
              <mxPoint x="580" y="405" />
              <mxPoint x="580" y="940" />
            </Array>
          </mxGeometry>
        </mxCell>
        <mxCell id="30GPN8XgoAUHvCBVAkMa-15" value="&lt;div&gt;while is not the end of the str&lt;br&gt;\0&lt;br&gt;&lt;/div&gt;" style="strokeWidth=2;html=1;shape=mxgraph.flowchart.decision;whiteSpace=wrap;" vertex="1" parent="WIyWlLk6GJQsqaUBKTNV-1">
          <mxGeometry x="60" y="360" width="180" height="90" as="geometry" />
        </mxCell>
        <mxCell id="30GPN8XgoAUHvCBVAkMa-59" style="edgeStyle=orthogonalEdgeStyle;rounded=0;orthogonalLoop=1;jettySize=auto;html=1;" edge="1" parent="WIyWlLk6GJQsqaUBKTNV-1" source="30GPN8XgoAUHvCBVAkMa-26" target="30GPN8XgoAUHvCBVAkMa-58">
          <mxGeometry relative="1" as="geometry" />
        </mxCell>
        <mxCell id="30GPN8XgoAUHvCBVAkMa-26" value="&lt;div&gt;1. va_end(args)&lt;/div&gt;&lt;div&gt;2. return (length)&lt;br&gt;&lt;/div&gt;" style="rounded=1;whiteSpace=wrap;html=1;" vertex="1" parent="WIyWlLk6GJQsqaUBKTNV-1">
          <mxGeometry x="90" y="910" width="120" height="60" as="geometry" />
        </mxCell>
        <mxCell id="30GPN8XgoAUHvCBVAkMa-31" value="&lt;div&gt;False&lt;/div&gt;" style="text;html=1;strokeColor=none;fillColor=none;align=center;verticalAlign=middle;whiteSpace=wrap;rounded=0;" vertex="1" parent="WIyWlLk6GJQsqaUBKTNV-1">
          <mxGeometry x="230" y="370" width="60" height="30" as="geometry" />
        </mxCell>
        <mxCell id="30GPN8XgoAUHvCBVAkMa-32" value="True" style="text;html=1;strokeColor=none;fillColor=none;align=center;verticalAlign=middle;whiteSpace=wrap;rounded=0;" vertex="1" parent="WIyWlLk6GJQsqaUBKTNV-1">
          <mxGeometry x="100" y="440" width="60" height="30" as="geometry" />
        </mxCell>
        <mxCell id="30GPN8XgoAUHvCBVAkMa-34" value="&amp;nbsp;" style="text;whiteSpace=wrap;html=1;" vertex="1" parent="WIyWlLk6GJQsqaUBKTNV-1">
          <mxGeometry x="530" y="670" width="40" height="40" as="geometry" />
        </mxCell>
        <mxCell id="30GPN8XgoAUHvCBVAkMa-45" style="edgeStyle=orthogonalEdgeStyle;rounded=0;orthogonalLoop=1;jettySize=auto;html=1;entryX=0.5;entryY=0;entryDx=0;entryDy=0;fillColor=#f8cecc;strokeColor=#b85450;" edge="1" parent="WIyWlLk6GJQsqaUBKTNV-1" source="30GPN8XgoAUHvCBVAkMa-35" target="30GPN8XgoAUHvCBVAkMa-38">
          <mxGeometry relative="1" as="geometry" />
        </mxCell>
        <mxCell id="30GPN8XgoAUHvCBVAkMa-47" style="edgeStyle=orthogonalEdgeStyle;rounded=0;orthogonalLoop=1;jettySize=auto;html=1;exitX=0.5;exitY=1;exitDx=0;exitDy=0;exitPerimeter=0;entryX=0.5;entryY=0;entryDx=0;entryDy=0;" edge="1" parent="WIyWlLk6GJQsqaUBKTNV-1" source="30GPN8XgoAUHvCBVAkMa-35" target="30GPN8XgoAUHvCBVAkMa-36">
          <mxGeometry relative="1" as="geometry" />
        </mxCell>
        <mxCell id="30GPN8XgoAUHvCBVAkMa-35" value="if str[i] == &#39;%&#39;" style="strokeWidth=2;html=1;shape=mxgraph.flowchart.decision;whiteSpace=wrap;" vertex="1" parent="WIyWlLk6GJQsqaUBKTNV-1">
          <mxGeometry x="100" y="550" width="100" height="100" as="geometry" />
        </mxCell>
        <mxCell id="30GPN8XgoAUHvCBVAkMa-52" style="edgeStyle=orthogonalEdgeStyle;rounded=0;orthogonalLoop=1;jettySize=auto;html=1;entryX=0;entryY=0.5;entryDx=0;entryDy=0;entryPerimeter=0;" edge="1" parent="WIyWlLk6GJQsqaUBKTNV-1" source="30GPN8XgoAUHvCBVAkMa-36" target="30GPN8XgoAUHvCBVAkMa-15">
          <mxGeometry relative="1" as="geometry">
            <Array as="points">
              <mxPoint x="-30" y="765" />
              <mxPoint x="-30" y="405" />
            </Array>
          </mxGeometry>
        </mxCell>
        <mxCell id="30GPN8XgoAUHvCBVAkMa-36" value="1. i++;&lt;br&gt;2. check next character with the function ft_printf_checker()&lt;br&gt;3. i++;&lt;br&gt;&lt;ol&gt;&lt;/ol&gt;" style="rounded=0;whiteSpace=wrap;html=1;fillColor=#ffe6cc;strokeColor=#d79b00;" vertex="1" parent="WIyWlLk6GJQsqaUBKTNV-1">
          <mxGeometry x="30" y="720" width="240" height="90" as="geometry" />
        </mxCell>
        <mxCell id="30GPN8XgoAUHvCBVAkMa-37" style="edgeStyle=orthogonalEdgeStyle;rounded=0;orthogonalLoop=1;jettySize=auto;html=1;exitX=0.5;exitY=1;exitDx=0;exitDy=0;" edge="1" parent="WIyWlLk6GJQsqaUBKTNV-1" source="30GPN8XgoAUHvCBVAkMa-36" target="30GPN8XgoAUHvCBVAkMa-36">
          <mxGeometry relative="1" as="geometry" />
        </mxCell>
        <mxCell id="30GPN8XgoAUHvCBVAkMa-56" style="edgeStyle=orthogonalEdgeStyle;rounded=0;orthogonalLoop=1;jettySize=auto;html=1;entryX=0;entryY=0.5;entryDx=0;entryDy=0;entryPerimeter=0;" edge="1" parent="WIyWlLk6GJQsqaUBKTNV-1" source="30GPN8XgoAUHvCBVAkMa-38" target="30GPN8XgoAUHvCBVAkMa-15">
          <mxGeometry relative="1" as="geometry">
            <Array as="points">
              <mxPoint x="430" y="870" />
              <mxPoint x="-30" y="870" />
              <mxPoint x="-30" y="405" />
            </Array>
          </mxGeometry>
        </mxCell>
        <mxCell id="30GPN8XgoAUHvCBVAkMa-38" value="1. i++&lt;br&gt;2. check next character with the function ft_printf_checker()&lt;br&gt;3. i++;&lt;br&gt;&lt;ol&gt;&lt;/ol&gt;" style="rounded=0;whiteSpace=wrap;html=1;" vertex="1" parent="WIyWlLk6GJQsqaUBKTNV-1">
          <mxGeometry x="310" y="720" width="240" height="90" as="geometry" />
        </mxCell>
        <mxCell id="30GPN8XgoAUHvCBVAkMa-108" style="edgeStyle=orthogonalEdgeStyle;rounded=0;orthogonalLoop=1;jettySize=auto;html=1;exitX=0.5;exitY=1;exitDx=0;exitDy=0;entryX=0.5;entryY=0;entryDx=0;entryDy=0;entryPerimeter=0;" edge="1" parent="WIyWlLk6GJQsqaUBKTNV-1" source="30GPN8XgoAUHvCBVAkMa-39" target="30GPN8XgoAUHvCBVAkMa-97">
          <mxGeometry relative="1" as="geometry" />
        </mxCell>
        <mxCell id="30GPN8XgoAUHvCBVAkMa-39" value="static void&amp;nbsp;&amp;nbsp; ft_printf_checker(chars, va_list *args, int *len, int *i)" style="rounded=1;whiteSpace=wrap;html=1;fillColor=#ffe6cc;strokeColor=#d79b00;" vertex="1" parent="WIyWlLk6GJQsqaUBKTNV-1">
          <mxGeometry x="790" y="30" width="320" height="60" as="geometry" />
        </mxCell>
        <mxCell id="30GPN8XgoAUHvCBVAkMa-40" value="&lt;div&gt;1. check the next chararcter and call the function that is in charge of it&lt;/div&gt;&lt;div&gt;&lt;br&gt;&lt;/div&gt;&lt;div&gt;&lt;font color=&quot;#66b2ff&quot;&gt;if &#39;s&#39; --&amp;gt; ft_string()&lt;/font&gt;&lt;/div&gt;&lt;div&gt;if &#39;d&#39; or &#39;i&#39;--&amp;gt; ft_number()&lt;/div&gt;&lt;div&gt;if &#39;u&#39; --&amp;gt; ft_unsigned_int()&lt;br&gt;if &#39;x&#39; --&amp;gt; ft_hexadecimal()&lt;/div&gt;&lt;div&gt;if &#39;X&#39; --&amp;gt; ft(hexadecimal()&lt;br&gt;if &#39;p&#39; --&amp;gt; ft_pointer()&lt;br&gt;if &#39;c&#39; --&amp;gt; ft_putcharacter_length()&lt;/div&gt;&lt;div&gt;if &#39;%&#39; --&amp;gt; ft_putcharacter_length()&lt;br&gt;else&lt;br&gt;(*i) - 1;&lt;br&gt;&lt;/div&gt;&lt;div&gt;&lt;br&gt;&lt;/div&gt;" style="rounded=1;whiteSpace=wrap;html=1;" vertex="1" parent="WIyWlLk6GJQsqaUBKTNV-1">
          <mxGeometry x="487" y="150" width="340" height="210" as="geometry" />
        </mxCell>
        <mxCell id="30GPN8XgoAUHvCBVAkMa-49" value="True" style="text;html=1;strokeColor=none;fillColor=none;align=center;verticalAlign=middle;whiteSpace=wrap;rounded=0;" vertex="1" parent="WIyWlLk6GJQsqaUBKTNV-1">
          <mxGeometry x="150" y="650" width="60" height="30" as="geometry" />
        </mxCell>
        <mxCell id="30GPN8XgoAUHvCBVAkMa-50" value="&lt;div&gt;False&lt;/div&gt;" style="text;html=1;strokeColor=none;fillColor=none;align=center;verticalAlign=middle;whiteSpace=wrap;rounded=0;" vertex="1" parent="WIyWlLk6GJQsqaUBKTNV-1">
          <mxGeometry x="200" y="570" width="60" height="30" as="geometry" />
        </mxCell>
        <mxCell id="30GPN8XgoAUHvCBVAkMa-60" style="edgeStyle=orthogonalEdgeStyle;rounded=0;orthogonalLoop=1;jettySize=auto;html=1;" edge="1" parent="WIyWlLk6GJQsqaUBKTNV-1" source="30GPN8XgoAUHvCBVAkMa-57" target="30GPN8XgoAUHvCBVAkMa-0">
          <mxGeometry relative="1" as="geometry" />
        </mxCell>
        <mxCell id="30GPN8XgoAUHvCBVAkMa-57" value="inicio&lt;br&gt;&lt;div&gt;ft_printf(const char *str, ...)&lt;/div&gt;" style="strokeWidth=2;html=1;shape=mxgraph.flowchart.start_2;whiteSpace=wrap;" vertex="1" parent="WIyWlLk6GJQsqaUBKTNV-1">
          <mxGeometry x="100" y="10" width="100" height="100" as="geometry" />
        </mxCell>
        <mxCell id="30GPN8XgoAUHvCBVAkMa-58" value="End" style="strokeWidth=2;html=1;shape=mxgraph.flowchart.terminator;whiteSpace=wrap;" vertex="1" parent="WIyWlLk6GJQsqaUBKTNV-1">
          <mxGeometry x="100" y="1010" width="100" height="60" as="geometry" />
        </mxCell>
        <mxCell id="30GPN8XgoAUHvCBVAkMa-63" style="edgeStyle=orthogonalEdgeStyle;rounded=0;orthogonalLoop=1;jettySize=auto;html=1;entryX=0;entryY=0.5;entryDx=0;entryDy=0;dashed=1;" edge="1" parent="WIyWlLk6GJQsqaUBKTNV-1" source="30GPN8XgoAUHvCBVAkMa-61" target="30GPN8XgoAUHvCBVAkMa-26">
          <mxGeometry relative="1" as="geometry" />
        </mxCell>
        <mxCell id="30GPN8XgoAUHvCBVAkMa-61" value="" style="strokeWidth=2;html=1;shape=mxgraph.flowchart.annotation_2;align=left;labelPosition=right;pointerEvents=1;rotation=-180;" vertex="1" parent="WIyWlLk6GJQsqaUBKTNV-1">
          <mxGeometry x="-70" y="910" width="80" height="60" as="geometry" />
        </mxCell>
        <mxCell id="30GPN8XgoAUHvCBVAkMa-62" value="&lt;div&gt;va_end(arg) is used to end the pass for arguments&lt;/div&gt;" style="text;html=1;strokeColor=none;fillColor=none;align=center;verticalAlign=middle;whiteSpace=wrap;rounded=0;" vertex="1" parent="WIyWlLk6GJQsqaUBKTNV-1">
          <mxGeometry x="-170" y="902.5" width="140" height="75" as="geometry" />
        </mxCell>
        <mxCell id="30GPN8XgoAUHvCBVAkMa-72" value="" style="group" vertex="1" connectable="0" parent="WIyWlLk6GJQsqaUBKTNV-1">
          <mxGeometry x="370" y="45" width="290" height="30" as="geometry" />
        </mxCell>
        <mxCell id="30GPN8XgoAUHvCBVAkMa-70" value="ft_printf_checker(string[i], &amp;amp;args, &amp;amp;length, &amp;amp;i);" style="text;html=1;strokeColor=none;fillColor=none;align=center;verticalAlign=middle;whiteSpace=wrap;rounded=0;" vertex="1" parent="30GPN8XgoAUHvCBVAkMa-72">
          <mxGeometry width="280" height="30" as="geometry" />
        </mxCell>
        <mxCell id="30GPN8XgoAUHvCBVAkMa-71" value="" style="strokeWidth=2;html=1;shape=mxgraph.flowchart.annotation_2;align=left;labelPosition=right;pointerEvents=1;rotation=-180;" vertex="1" parent="30GPN8XgoAUHvCBVAkMa-72">
          <mxGeometry x="240" y="5" width="50" height="20" as="geometry" />
        </mxCell>
        <mxCell id="30GPN8XgoAUHvCBVAkMa-73" style="edgeStyle=orthogonalEdgeStyle;rounded=0;orthogonalLoop=1;jettySize=auto;html=1;entryX=0;entryY=0.5;entryDx=0;entryDy=0;dashed=1;" edge="1" parent="WIyWlLk6GJQsqaUBKTNV-1" source="30GPN8XgoAUHvCBVAkMa-71" target="30GPN8XgoAUHvCBVAkMa-39">
          <mxGeometry relative="1" as="geometry" />
        </mxCell>
        <mxCell id="30GPN8XgoAUHvCBVAkMa-75" value="se pasan las direcciones de memoria para que se modifiquen las variables en el codigo original" style="text;html=1;strokeColor=none;fillColor=none;align=center;verticalAlign=middle;whiteSpace=wrap;rounded=0;" vertex="1" parent="WIyWlLk6GJQsqaUBKTNV-1">
          <mxGeometry x="370" y="90" width="260" height="40" as="geometry" />
        </mxCell>
        <mxCell id="30GPN8XgoAUHvCBVAkMa-109" style="edgeStyle=orthogonalEdgeStyle;rounded=0;orthogonalLoop=1;jettySize=auto;html=1;fillColor=#f8cecc;strokeColor=#b85450;" edge="1" parent="WIyWlLk6GJQsqaUBKTNV-1" source="30GPN8XgoAUHvCBVAkMa-97" target="30GPN8XgoAUHvCBVAkMa-98">
          <mxGeometry relative="1" as="geometry" />
        </mxCell>
        <mxCell id="30GPN8XgoAUHvCBVAkMa-127" style="edgeStyle=orthogonalEdgeStyle;rounded=0;orthogonalLoop=1;jettySize=auto;html=1;entryX=0;entryY=0.5;entryDx=0;entryDy=0;" edge="1" parent="WIyWlLk6GJQsqaUBKTNV-1" source="30GPN8XgoAUHvCBVAkMa-97" target="30GPN8XgoAUHvCBVAkMa-119">
          <mxGeometry relative="1" as="geometry" />
        </mxCell>
        <mxCell id="30GPN8XgoAUHvCBVAkMa-97" value="if &#39;s&#39;" style="strokeWidth=2;html=1;shape=mxgraph.flowchart.decision;whiteSpace=wrap;" vertex="1" parent="WIyWlLk6GJQsqaUBKTNV-1">
          <mxGeometry x="910" y="120" width="80" height="40" as="geometry" />
        </mxCell>
        <mxCell id="30GPN8XgoAUHvCBVAkMa-110" style="edgeStyle=orthogonalEdgeStyle;rounded=0;orthogonalLoop=1;jettySize=auto;html=1;entryX=0.5;entryY=0;entryDx=0;entryDy=0;entryPerimeter=0;fillColor=#f8cecc;strokeColor=#b85450;" edge="1" parent="WIyWlLk6GJQsqaUBKTNV-1" source="30GPN8XgoAUHvCBVAkMa-98" target="30GPN8XgoAUHvCBVAkMa-99">
          <mxGeometry relative="1" as="geometry" />
        </mxCell>
        <mxCell id="30GPN8XgoAUHvCBVAkMa-128" style="edgeStyle=orthogonalEdgeStyle;rounded=0;orthogonalLoop=1;jettySize=auto;html=1;entryX=0;entryY=0.5;entryDx=0;entryDy=0;" edge="1" parent="WIyWlLk6GJQsqaUBKTNV-1" source="30GPN8XgoAUHvCBVAkMa-98" target="30GPN8XgoAUHvCBVAkMa-120">
          <mxGeometry relative="1" as="geometry" />
        </mxCell>
        <mxCell id="30GPN8XgoAUHvCBVAkMa-98" value="if &#39;d&#39; or &#39;i&#39;" style="strokeWidth=2;html=1;shape=mxgraph.flowchart.decision;whiteSpace=wrap;" vertex="1" parent="WIyWlLk6GJQsqaUBKTNV-1">
          <mxGeometry x="910" y="180" width="80" height="40" as="geometry" />
        </mxCell>
        <mxCell id="30GPN8XgoAUHvCBVAkMa-111" style="edgeStyle=orthogonalEdgeStyle;rounded=0;orthogonalLoop=1;jettySize=auto;html=1;entryX=0.5;entryY=0;entryDx=0;entryDy=0;entryPerimeter=0;fillColor=#f8cecc;strokeColor=#b85450;" edge="1" parent="WIyWlLk6GJQsqaUBKTNV-1" source="30GPN8XgoAUHvCBVAkMa-99" target="30GPN8XgoAUHvCBVAkMa-100">
          <mxGeometry relative="1" as="geometry" />
        </mxCell>
        <mxCell id="30GPN8XgoAUHvCBVAkMa-130" style="edgeStyle=orthogonalEdgeStyle;rounded=0;orthogonalLoop=1;jettySize=auto;html=1;entryX=0;entryY=0.5;entryDx=0;entryDy=0;" edge="1" parent="WIyWlLk6GJQsqaUBKTNV-1" source="30GPN8XgoAUHvCBVAkMa-99" target="30GPN8XgoAUHvCBVAkMa-121">
          <mxGeometry relative="1" as="geometry" />
        </mxCell>
        <mxCell id="30GPN8XgoAUHvCBVAkMa-99" value="if &#39;u&#39;" style="strokeWidth=2;html=1;shape=mxgraph.flowchart.decision;whiteSpace=wrap;" vertex="1" parent="WIyWlLk6GJQsqaUBKTNV-1">
          <mxGeometry x="910" y="235" width="80" height="40" as="geometry" />
        </mxCell>
        <mxCell id="30GPN8XgoAUHvCBVAkMa-112" style="edgeStyle=orthogonalEdgeStyle;rounded=0;orthogonalLoop=1;jettySize=auto;html=1;fillColor=#f8cecc;strokeColor=#b85450;" edge="1" parent="WIyWlLk6GJQsqaUBKTNV-1" source="30GPN8XgoAUHvCBVAkMa-100" target="30GPN8XgoAUHvCBVAkMa-101">
          <mxGeometry relative="1" as="geometry" />
        </mxCell>
        <mxCell id="30GPN8XgoAUHvCBVAkMa-131" style="edgeStyle=orthogonalEdgeStyle;rounded=0;orthogonalLoop=1;jettySize=auto;html=1;" edge="1" parent="WIyWlLk6GJQsqaUBKTNV-1" source="30GPN8XgoAUHvCBVAkMa-100" target="30GPN8XgoAUHvCBVAkMa-122">
          <mxGeometry relative="1" as="geometry" />
        </mxCell>
        <mxCell id="30GPN8XgoAUHvCBVAkMa-100" value="if &#39;x&#39;" style="strokeWidth=2;html=1;shape=mxgraph.flowchart.decision;whiteSpace=wrap;" vertex="1" parent="WIyWlLk6GJQsqaUBKTNV-1">
          <mxGeometry x="910" y="290" width="80" height="40" as="geometry" />
        </mxCell>
        <mxCell id="30GPN8XgoAUHvCBVAkMa-114" style="edgeStyle=orthogonalEdgeStyle;rounded=0;orthogonalLoop=1;jettySize=auto;html=1;entryX=0.5;entryY=0;entryDx=0;entryDy=0;entryPerimeter=0;fillColor=#f8cecc;strokeColor=#b85450;" edge="1" parent="WIyWlLk6GJQsqaUBKTNV-1" source="30GPN8XgoAUHvCBVAkMa-101" target="30GPN8XgoAUHvCBVAkMa-103">
          <mxGeometry relative="1" as="geometry" />
        </mxCell>
        <mxCell id="30GPN8XgoAUHvCBVAkMa-132" style="edgeStyle=orthogonalEdgeStyle;rounded=0;orthogonalLoop=1;jettySize=auto;html=1;" edge="1" parent="WIyWlLk6GJQsqaUBKTNV-1" source="30GPN8XgoAUHvCBVAkMa-101" target="30GPN8XgoAUHvCBVAkMa-123">
          <mxGeometry relative="1" as="geometry" />
        </mxCell>
        <mxCell id="30GPN8XgoAUHvCBVAkMa-101" value="if &#39;X&#39;" style="strokeWidth=2;html=1;shape=mxgraph.flowchart.decision;whiteSpace=wrap;" vertex="1" parent="WIyWlLk6GJQsqaUBKTNV-1">
          <mxGeometry x="910" y="350" width="80" height="40" as="geometry" />
        </mxCell>
        <mxCell id="30GPN8XgoAUHvCBVAkMa-102" value="" style="group" vertex="1" connectable="0" parent="WIyWlLk6GJQsqaUBKTNV-1">
          <mxGeometry x="780" y="650" width="599.5" height="750" as="geometry" />
        </mxCell>
        <mxCell id="30GPN8XgoAUHvCBVAkMa-64" value="&lt;div&gt;void&amp;nbsp;&amp;nbsp;&amp;nbsp; ft_string(char *args, int *len)&lt;/div&gt;" style="rounded=1;whiteSpace=wrap;html=1;fillColor=#99CCFF;strokeColor=#6c8ebf;" vertex="1" parent="30GPN8XgoAUHvCBVAkMa-102">
          <mxGeometry y="190" width="320" height="60" as="geometry" />
        </mxCell>
        <mxCell id="30GPN8XgoAUHvCBVAkMa-67" style="edgeStyle=orthogonalEdgeStyle;rounded=0;orthogonalLoop=1;jettySize=auto;html=1;dashed=1;" edge="1" parent="30GPN8XgoAUHvCBVAkMa-102" source="30GPN8XgoAUHvCBVAkMa-65" target="30GPN8XgoAUHvCBVAkMa-64">
          <mxGeometry relative="1" as="geometry" />
        </mxCell>
        <mxCell id="30GPN8XgoAUHvCBVAkMa-65" value="" style="strokeWidth=2;html=1;shape=mxgraph.flowchart.annotation_2;align=left;labelPosition=right;pointerEvents=1;" vertex="1" parent="30GPN8XgoAUHvCBVAkMa-102">
          <mxGeometry x="380" y="170" width="50" height="100" as="geometry" />
        </mxCell>
        <mxCell id="30GPN8XgoAUHvCBVAkMa-66" value="The arguments are:&lt;br&gt;ft_string(va_arg(*args, char*). len);" style="text;html=1;strokeColor=none;fillColor=none;align=center;verticalAlign=middle;whiteSpace=wrap;rounded=0;" vertex="1" parent="30GPN8XgoAUHvCBVAkMa-102">
          <mxGeometry x="420" y="185" width="149" height="70" as="geometry" />
        </mxCell>
        <mxCell id="30GPN8XgoAUHvCBVAkMa-69" style="edgeStyle=orthogonalEdgeStyle;rounded=0;orthogonalLoop=1;jettySize=auto;html=1;dashed=1;" edge="1" parent="30GPN8XgoAUHvCBVAkMa-102" source="30GPN8XgoAUHvCBVAkMa-68" target="30GPN8XgoAUHvCBVAkMa-66">
          <mxGeometry relative="1" as="geometry" />
        </mxCell>
        <mxCell id="30GPN8XgoAUHvCBVAkMa-68" value="va_arg(*args, char)&lt;br&gt;the sign of the function is:&lt;br&gt;type va_arg(va_list ap, type);&lt;br&gt;va_arg takes as argument the object va_list and second argument the data typo of the argument to obtain&lt;br&gt; " style="ellipse;shape=cloud;whiteSpace=wrap;html=1;fillColor=#dae8fc;strokeColor=#6c8ebf;dashed=1;" vertex="1" parent="30GPN8XgoAUHvCBVAkMa-102">
          <mxGeometry x="389.5" width="210" height="110" as="geometry" />
        </mxCell>
        <mxCell id="30GPN8XgoAUHvCBVAkMa-76" value="if no arguments&lt;br&gt;if(!args)" style="strokeWidth=2;html=1;shape=mxgraph.flowchart.decision;whiteSpace=wrap;" vertex="1" parent="30GPN8XgoAUHvCBVAkMa-102">
          <mxGeometry x="27" y="320" width="100" height="90" as="geometry" />
        </mxCell>
        <mxCell id="30GPN8XgoAUHvCBVAkMa-96" style="edgeStyle=orthogonalEdgeStyle;rounded=0;orthogonalLoop=1;jettySize=auto;html=1;entryX=0.5;entryY=0;entryDx=0;entryDy=0;entryPerimeter=0;" edge="1" parent="30GPN8XgoAUHvCBVAkMa-102" source="30GPN8XgoAUHvCBVAkMa-64" target="30GPN8XgoAUHvCBVAkMa-76">
          <mxGeometry relative="1" as="geometry" />
        </mxCell>
        <mxCell id="30GPN8XgoAUHvCBVAkMa-78" value="&quot;null&quot;" style="strokeWidth=2;html=1;shape=mxgraph.flowchart.display;whiteSpace=wrap;" vertex="1" parent="30GPN8XgoAUHvCBVAkMa-102">
          <mxGeometry x="27" y="465" width="100" height="60" as="geometry" />
        </mxCell>
        <mxCell id="30GPN8XgoAUHvCBVAkMa-84" style="edgeStyle=orthogonalEdgeStyle;rounded=0;orthogonalLoop=1;jettySize=auto;html=1;" edge="1" parent="30GPN8XgoAUHvCBVAkMa-102" source="30GPN8XgoAUHvCBVAkMa-76" target="30GPN8XgoAUHvCBVAkMa-78">
          <mxGeometry relative="1" as="geometry" />
        </mxCell>
        <mxCell id="30GPN8XgoAUHvCBVAkMa-80" value="return" style="strokeWidth=2;html=1;shape=mxgraph.flowchart.terminator;whiteSpace=wrap;" vertex="1" parent="30GPN8XgoAUHvCBVAkMa-102">
          <mxGeometry x="27" y="690" width="100" height="60" as="geometry" />
        </mxCell>
        <mxCell id="30GPN8XgoAUHvCBVAkMa-81" style="edgeStyle=orthogonalEdgeStyle;rounded=0;orthogonalLoop=1;jettySize=auto;html=1;entryX=0.5;entryY=0;entryDx=0;entryDy=0;entryPerimeter=0;" edge="1" parent="30GPN8XgoAUHvCBVAkMa-102" source="30GPN8XgoAUHvCBVAkMa-78" target="30GPN8XgoAUHvCBVAkMa-80">
          <mxGeometry relative="1" as="geometry" />
        </mxCell>
        <mxCell id="30GPN8XgoAUHvCBVAkMa-95" style="edgeStyle=orthogonalEdgeStyle;rounded=0;orthogonalLoop=1;jettySize=auto;html=1;entryX=1;entryY=0.5;entryDx=0;entryDy=0;entryPerimeter=0;fillColor=#f8cecc;strokeColor=#b85450;" edge="1" parent="30GPN8XgoAUHvCBVAkMa-102" source="30GPN8XgoAUHvCBVAkMa-83" target="30GPN8XgoAUHvCBVAkMa-80">
          <mxGeometry relative="1" as="geometry">
            <Array as="points">
              <mxPoint x="440" y="440" />
              <mxPoint x="440" y="720" />
            </Array>
          </mxGeometry>
        </mxCell>
        <mxCell id="30GPN8XgoAUHvCBVAkMa-83" value="while arg[i] != &#39;\0&#39;" style="strokeWidth=2;html=1;shape=mxgraph.flowchart.decision;whiteSpace=wrap;" vertex="1" parent="30GPN8XgoAUHvCBVAkMa-102">
          <mxGeometry x="210" y="390" width="140" height="100" as="geometry" />
        </mxCell>
        <mxCell id="30GPN8XgoAUHvCBVAkMa-94" style="edgeStyle=orthogonalEdgeStyle;rounded=0;orthogonalLoop=1;jettySize=auto;html=1;entryX=0.5;entryY=0;entryDx=0;entryDy=0;entryPerimeter=0;fillColor=#f8cecc;strokeColor=#b85450;" edge="1" parent="30GPN8XgoAUHvCBVAkMa-102" source="30GPN8XgoAUHvCBVAkMa-76" target="30GPN8XgoAUHvCBVAkMa-83">
          <mxGeometry relative="1" as="geometry" />
        </mxCell>
        <mxCell id="30GPN8XgoAUHvCBVAkMa-87" value="ft_putcharacter_length(args[i], length)" style="rounded=1;whiteSpace=wrap;html=1;absoluteArcSize=1;arcSize=14;strokeWidth=2;" vertex="1" parent="30GPN8XgoAUHvCBVAkMa-102">
          <mxGeometry x="175" y="530" width="210" height="50" as="geometry" />
        </mxCell>
        <mxCell id="30GPN8XgoAUHvCBVAkMa-90" style="edgeStyle=orthogonalEdgeStyle;rounded=0;orthogonalLoop=1;jettySize=auto;html=1;entryX=0.5;entryY=0;entryDx=0;entryDy=0;" edge="1" parent="30GPN8XgoAUHvCBVAkMa-102" source="30GPN8XgoAUHvCBVAkMa-83" target="30GPN8XgoAUHvCBVAkMa-87">
          <mxGeometry relative="1" as="geometry" />
        </mxCell>
        <mxCell id="30GPN8XgoAUHvCBVAkMa-92" style="edgeStyle=orthogonalEdgeStyle;rounded=0;orthogonalLoop=1;jettySize=auto;html=1;entryX=0;entryY=0.5;entryDx=0;entryDy=0;entryPerimeter=0;" edge="1" parent="30GPN8XgoAUHvCBVAkMa-102" source="30GPN8XgoAUHvCBVAkMa-89" target="30GPN8XgoAUHvCBVAkMa-83">
          <mxGeometry relative="1" as="geometry">
            <Array as="points">
              <mxPoint x="150" y="635" />
              <mxPoint x="150" y="440" />
            </Array>
          </mxGeometry>
        </mxCell>
        <mxCell id="30GPN8XgoAUHvCBVAkMa-89" value="i++" style="rounded=1;whiteSpace=wrap;html=1;absoluteArcSize=1;arcSize=14;strokeWidth=2;" vertex="1" parent="30GPN8XgoAUHvCBVAkMa-102">
          <mxGeometry x="230" y="620" width="100" height="30" as="geometry" />
        </mxCell>
        <mxCell id="30GPN8XgoAUHvCBVAkMa-91" style="edgeStyle=orthogonalEdgeStyle;rounded=0;orthogonalLoop=1;jettySize=auto;html=1;" edge="1" parent="30GPN8XgoAUHvCBVAkMa-102" source="30GPN8XgoAUHvCBVAkMa-87" target="30GPN8XgoAUHvCBVAkMa-89">
          <mxGeometry relative="1" as="geometry" />
        </mxCell>
        <mxCell id="30GPN8XgoAUHvCBVAkMa-115" style="edgeStyle=orthogonalEdgeStyle;rounded=0;orthogonalLoop=1;jettySize=auto;html=1;entryX=0.5;entryY=0;entryDx=0;entryDy=0;entryPerimeter=0;fillColor=#f8cecc;strokeColor=#b85450;" edge="1" parent="WIyWlLk6GJQsqaUBKTNV-1" source="30GPN8XgoAUHvCBVAkMa-103" target="30GPN8XgoAUHvCBVAkMa-104">
          <mxGeometry relative="1" as="geometry" />
        </mxCell>
        <mxCell id="30GPN8XgoAUHvCBVAkMa-133" style="edgeStyle=orthogonalEdgeStyle;rounded=0;orthogonalLoop=1;jettySize=auto;html=1;" edge="1" parent="WIyWlLk6GJQsqaUBKTNV-1" source="30GPN8XgoAUHvCBVAkMa-103" target="30GPN8XgoAUHvCBVAkMa-124">
          <mxGeometry relative="1" as="geometry" />
        </mxCell>
        <mxCell id="30GPN8XgoAUHvCBVAkMa-103" value="if &#39;p&#39;" style="strokeWidth=2;html=1;shape=mxgraph.flowchart.decision;whiteSpace=wrap;" vertex="1" parent="WIyWlLk6GJQsqaUBKTNV-1">
          <mxGeometry x="910" y="410" width="80" height="40" as="geometry" />
        </mxCell>
        <mxCell id="30GPN8XgoAUHvCBVAkMa-116" style="edgeStyle=orthogonalEdgeStyle;rounded=0;orthogonalLoop=1;jettySize=auto;html=1;" edge="1" parent="WIyWlLk6GJQsqaUBKTNV-1" target="30GPN8XgoAUHvCBVAkMa-105">
          <mxGeometry relative="1" as="geometry">
            <mxPoint x="960" y="537" as="sourcePoint" />
          </mxGeometry>
        </mxCell>
        <mxCell id="30GPN8XgoAUHvCBVAkMa-118" style="edgeStyle=orthogonalEdgeStyle;rounded=0;orthogonalLoop=1;jettySize=auto;html=1;fillColor=#f8cecc;strokeColor=#b85450;" edge="1" parent="WIyWlLk6GJQsqaUBKTNV-1" source="30GPN8XgoAUHvCBVAkMa-104" target="30GPN8XgoAUHvCBVAkMa-105">
          <mxGeometry relative="1" as="geometry" />
        </mxCell>
        <mxCell id="30GPN8XgoAUHvCBVAkMa-134" style="edgeStyle=orthogonalEdgeStyle;rounded=0;orthogonalLoop=1;jettySize=auto;html=1;" edge="1" parent="WIyWlLk6GJQsqaUBKTNV-1" source="30GPN8XgoAUHvCBVAkMa-104" target="30GPN8XgoAUHvCBVAkMa-125">
          <mxGeometry relative="1" as="geometry" />
        </mxCell>
        <mxCell id="30GPN8XgoAUHvCBVAkMa-104" value="if &#39;c&#39;" style="strokeWidth=2;html=1;shape=mxgraph.flowchart.decision;whiteSpace=wrap;" vertex="1" parent="WIyWlLk6GJQsqaUBKTNV-1">
          <mxGeometry x="910" y="470" width="80" height="40" as="geometry" />
        </mxCell>
        <mxCell id="30GPN8XgoAUHvCBVAkMa-117" style="edgeStyle=orthogonalEdgeStyle;rounded=0;orthogonalLoop=1;jettySize=auto;html=1;fillColor=#f8cecc;strokeColor=#b85450;" edge="1" parent="WIyWlLk6GJQsqaUBKTNV-1" source="30GPN8XgoAUHvCBVAkMa-105" target="30GPN8XgoAUHvCBVAkMa-107">
          <mxGeometry relative="1" as="geometry" />
        </mxCell>
        <mxCell id="30GPN8XgoAUHvCBVAkMa-135" style="edgeStyle=orthogonalEdgeStyle;rounded=0;orthogonalLoop=1;jettySize=auto;html=1;" edge="1" parent="WIyWlLk6GJQsqaUBKTNV-1" source="30GPN8XgoAUHvCBVAkMa-105" target="30GPN8XgoAUHvCBVAkMa-126">
          <mxGeometry relative="1" as="geometry" />
        </mxCell>
        <mxCell id="30GPN8XgoAUHvCBVAkMa-105" value="if &#39;%&#39;" style="strokeWidth=2;html=1;shape=mxgraph.flowchart.decision;whiteSpace=wrap;" vertex="1" parent="WIyWlLk6GJQsqaUBKTNV-1">
          <mxGeometry x="910" y="527" width="80" height="40" as="geometry" />
        </mxCell>
        <mxCell id="30GPN8XgoAUHvCBVAkMa-107" value="(*i)--;" style="rounded=1;whiteSpace=wrap;html=1;" vertex="1" parent="WIyWlLk6GJQsqaUBKTNV-1">
          <mxGeometry x="910" y="597" width="80" height="30" as="geometry" />
        </mxCell>
        <mxCell id="30GPN8XgoAUHvCBVAkMa-119" value="ft_string(va_arg(*args, char *), len);" style="rounded=1;whiteSpace=wrap;html=1;fillColor=#66B2FF;strokeColor=#6c8ebf;" vertex="1" parent="WIyWlLk6GJQsqaUBKTNV-1">
          <mxGeometry x="1040" y="125" width="200" height="30" as="geometry" />
        </mxCell>
        <mxCell id="30GPN8XgoAUHvCBVAkMa-120" value="ft_number(va_arg(*args, int), len);" style="rounded=1;whiteSpace=wrap;html=1;" vertex="1" parent="WIyWlLk6GJQsqaUBKTNV-1">
          <mxGeometry x="1041" y="185" width="200" height="30" as="geometry" />
        </mxCell>
        <mxCell id="30GPN8XgoAUHvCBVAkMa-121" value="ft_unsigned_int(va_arg(*args, unsigned int), len);" style="rounded=1;whiteSpace=wrap;html=1;" vertex="1" parent="WIyWlLk6GJQsqaUBKTNV-1">
          <mxGeometry x="1040" y="240" width="270" height="30" as="geometry" />
        </mxCell>
        <mxCell id="30GPN8XgoAUHvCBVAkMa-122" value="ft_hexadecimal(va_arg(*args, unsigned int), len, &#39;x&#39;);" style="rounded=1;whiteSpace=wrap;html=1;" vertex="1" parent="WIyWlLk6GJQsqaUBKTNV-1">
          <mxGeometry x="1040" y="295" width="290" height="30" as="geometry" />
        </mxCell>
        <mxCell id="30GPN8XgoAUHvCBVAkMa-123" value="ft_hexadecimal(va_arg(*args, unsigned int), len, &#39;X&#39;);" style="rounded=1;whiteSpace=wrap;html=1;" vertex="1" parent="WIyWlLk6GJQsqaUBKTNV-1">
          <mxGeometry x="1040" y="355" width="290" height="30" as="geometry" />
        </mxCell>
        <mxCell id="30GPN8XgoAUHvCBVAkMa-124" value="ft_pointer(va_arg(*args, size_t), len);" style="rounded=1;whiteSpace=wrap;html=1;" vertex="1" parent="WIyWlLk6GJQsqaUBKTNV-1">
          <mxGeometry x="1040" y="415" width="210" height="30" as="geometry" />
        </mxCell>
        <mxCell id="30GPN8XgoAUHvCBVAkMa-125" value="ft_putcharacter_length(va_arg(*args, int), len);" style="rounded=1;whiteSpace=wrap;html=1;" vertex="1" parent="WIyWlLk6GJQsqaUBKTNV-1">
          <mxGeometry x="1040" y="475" width="260" height="30" as="geometry" />
        </mxCell>
        <mxCell id="30GPN8XgoAUHvCBVAkMa-126" value="ft_putcharacter_length(&#39;%&#39;, len);" style="rounded=1;whiteSpace=wrap;html=1;" vertex="1" parent="WIyWlLk6GJQsqaUBKTNV-1">
          <mxGeometry x="1040" y="532" width="190" height="30" as="geometry" />
        </mxCell>
        <mxCell id="30GPN8XgoAUHvCBVAkMa-136" value="False" style="text;html=1;strokeColor=none;fillColor=none;align=center;verticalAlign=middle;whiteSpace=wrap;rounded=0;" vertex="1" parent="WIyWlLk6GJQsqaUBKTNV-1">
          <mxGeometry x="890" y="155" width="60" height="30" as="geometry" />
        </mxCell>
        <mxCell id="30GPN8XgoAUHvCBVAkMa-137" value="True" style="text;html=1;strokeColor=none;fillColor=none;align=center;verticalAlign=middle;whiteSpace=wrap;rounded=0;" vertex="1" parent="WIyWlLk6GJQsqaUBKTNV-1">
          <mxGeometry x="980" y="110" width="60" height="30" as="geometry" />
        </mxCell>
      </root>
    </mxGraphModel>
  </diagram>
</mxfile>
